<?xml version="1.0" encoding="utf-8"?>
<!-- Generator: Adobe Illustrator 27.2.0, SVG Export Plug-In . SVG Version: 6.00 Build 0)  -->
<svg version="1.1" id="Layer_1" xmlns="http://www.w3.org/2000/svg" xmlns:xlink="http://www.w3.org/1999/xlink" x="0px" y="0px"
	 viewBox="0 0 1366 768" style="enable-background:new 0 0 1366 768;" xml:space="preserve">
<style type="text/css">
	.st0{clip-path:url(#SVGID_00000124866172210230201490000001691345739704557224_);}
	.st1{clip-path:url(#SVGID_00000170983966400607556110000007976355089961288369_);}
	.st2{opacity:0.1;}
	.st3{clip-path:url(#SVGID_00000072958373591707723990000010844773549475628434_);}
	.st4{fill:#4D7491;}
	.st5{clip-path:url(#SVGID_00000036209412270720658770000011236558184071948680_);}
	.st6{fill:#F2AC66;}
	.st7{fill:#DB904D;}
	.st8{fill:#E04F56;}
	.st9{fill:#ED6769;}
	.st10{fill:#D6E6ED;}
	.st11{fill:#F7D0BE;}
	.st12{fill:#19303F;}
	.st13{fill:#86BF8E;}
	.st14{fill:#BADAC1;}
	.st15{fill:#983F21;}
	.st16{fill:#033030;}
	.st17{fill:#D89877;}
	.st18{fill:#A9552F;}
	.st19{fill:#5B3D38;}
	.st20{fill:#FFFFFF;}
	.st21{fill:#472A26;}
	.st22{fill:#BC8550;}
	.st23{fill:#CC975E;}
	.st24{fill:#81AEC6;}
	.st25{fill:#F7DBC9;}
	.st26{fill:#AD5C44;}
	.st27{fill:#93422F;}
	.st28{fill:#E5A78C;}
	.st29{fill:#053032;}
	.st30{fill:#DA9978;}
</style>
<g>
	<defs>
		<rect id="SVGID_1_" x="276.51" y="181.98" width="812" height="405.87"/>
	</defs>
	<clipPath id="SVGID_00000130636643914601391220000002911070077371522689_">
		<use xlink:href="#SVGID_1_"  style="overflow:visible;"/>
	</clipPath>
	<g id="Group_9" style="clip-path:url(#SVGID_00000130636643914601391220000002911070077371522689_);">
		<g id="Group_8">
			<g>
				<defs>
					<rect id="SVGID_00000012447588489973634220000012353295512592666035_" x="276.51" y="181.98" width="812" height="405.87"/>
				</defs>
				<clipPath id="SVGID_00000126301342403183483590000001198117263768043667_">
					<use xlink:href="#SVGID_00000012447588489973634220000012353295512592666035_"  style="overflow:visible;"/>
				</clipPath>
				<g id="Group_7" style="clip-path:url(#SVGID_00000126301342403183483590000001198117263768043667_);">
					<g id="Group_3" transform="translate(0 359.133)" class="st2">
						<g id="Group_2">
							<g>
								<defs>
									
										<rect id="SVGID_00000091710176209563989310000003353903006311490704_" x="276.51" y="181.98" width="494.47" height="46.73"/>
								</defs>
								<clipPath id="SVGID_00000099657164504782743580000007497195133074391941_">
									<use xlink:href="#SVGID_00000091710176209563989310000003353903006311490704_"  style="overflow:visible;"/>
								</clipPath>
								<g id="Group_1" style="clip-path:url(#SVGID_00000099657164504782743580000007497195133074391941_);">
									<path id="Path_1" class="st4" d="M770.98,205.34c0,12.9-110.69,23.37-247.23,23.37s-247.23-10.46-247.23-23.37
										c0-12.9,110.69-23.37,247.23-23.37S770.98,192.44,770.98,205.34"/>
								</g>
							</g>
						</g>
					</g>
					<g id="Group_6" transform="translate(480.223 345.656)" class="st2">
						<g id="Group_5">
							<g>
								<defs>
									
										<rect id="SVGID_00000084494466656443695310000009550315960038324105_" x="276.51" y="181.98" width="331.78" height="39.81"/>
								</defs>
								<clipPath id="SVGID_00000043432583160565701540000007452818594251626894_">
									<use xlink:href="#SVGID_00000084494466656443695310000009550315960038324105_"  style="overflow:visible;"/>
								</clipPath>
								<g id="Group_4" style="clip-path:url(#SVGID_00000043432583160565701540000007452818594251626894_);">
									<path id="Path_2" class="st4" d="M608.29,201.88c0,10.99-74.27,19.9-165.89,19.9s-165.89-8.91-165.89-19.9
										s74.27-19.9,165.89-19.9S608.29,190.89,608.29,201.88"/>
								</g>
							</g>
						</g>
					</g>
					<path id="Path_3" class="st6" d="M418.02,471.96c0.02,2.69-0.86,9.97-2.18,19.38c-3.5,24.84-10.15,64.56-11.76,74.1
						c-0.19,1.36-1.42,2.32-2.78,2.19c-0.89-0.13-1.68-0.64-2.16-1.4c-1.33-3.22,2.99-47.47,5.84-74.89
						c1.3-12.52,2.29-21.53,2.29-21.53S417.93,461.14,418.02,471.96"/>
					<path id="Path_4" class="st6" d="M352.54,471.5c0.02,2.62-0.8,9.56-2.07,18.6c-3.47,24.78-10.24,65.25-11.87,74.89
						c-0.19,1.36-1.41,2.33-2.78,2.19c-0.89-0.13-1.68-0.63-2.16-1.39c-1.4-3.39,3.48-52.38,6.28-79.19
						c1.07-10.23,1.84-17.24,1.84-17.24S352.46,460.67,352.54,471.5"/>
					<path id="Path_5" class="st6" d="M719.18,567.21c-0.48,0.76-1.28,1.27-2.17,1.4c-1.36,0.13-2.59-0.83-2.78-2.19
						c-1.62-9.66-8.43-50.3-11.89-75.06c-1.25-8.94-2.07-15.82-2.04-18.42c0.09-10.82,10.75-2.14,10.75-2.14s0.93,8.49,2.17,20.45
						C716.07,518.56,720.53,563.95,719.18,567.21"/>
					<path id="Path_6" class="st7" d="M352.54,471.5c0.02,2.62-0.8,9.56-2.07,18.6c-3.62-0.8-7.15-1.98-10.53-3.51
						c1.07-10.23,1.84-17.24,1.84-17.24S352.46,460.67,352.54,471.5"/>
					<path id="Path_7" class="st7" d="M418.02,471.96c0.02,2.69-0.85,9.97-2.18,19.38h-10.86c1.3-12.52,2.29-21.53,2.29-21.53
						S417.93,461.15,418.02,471.96"/>
					<path id="Path_8" class="st7" d="M713.23,491.24c-1.16,0.07-2.34,0.11-3.52,0.11h-7.36c-1.25-8.94-2.07-15.82-2.05-18.42
						c0.09-10.82,10.75-2.14,10.75-2.14S711.99,479.28,713.23,491.24"/>
					<path id="Path_9" class="st8" d="M669.44,392.32v94.34H362.08c-29.66,0-53.71-24.05-53.71-53.71v-105.7
						c-0.01-16.15,13.07-29.26,29.23-29.27c0.02,0,0.03,0,0.05,0l270.03,0.29l14.87,0.06c9.25,0.04,17.48,6.62,20.58,15.34
						L669.44,392.32z"/>
					<path id="Path_10" class="st8" d="M749.69,392.53v40.41c0,29.66-24.04,53.71-53.7,53.71c0,0,0,0,0,0H388.62v-94.34l26.32-78.66
						c3.11-8.71,11.34-14.53,20.58-14.57l186.32-0.73c9.67-0.04,18.28,6.14,21.34,15.32l19.74,59.12
						c3.9,11.66,14.8,19.54,27.1,19.58L749.69,392.53z"/>
					<path id="Path_11" class="st9" d="M347.58,392.86c-11.21,0-19.49-7.22-24.59-21.46c-4.7-13.1-4.93-27.48-4.93-30.23
						c0-1.8-0.08-3.81-0.16-5.93c-0.47-11.86-1.1-28.1,11.21-36.18l0.6,0.9c-11.81,7.74-11.18,23.63-10.73,35.23
						c0.08,2.14,0.16,4.15,0.16,5.97c0,2.07,0.32,50.61,28.44,50.61V392.86z"/>
					<path id="Path_12" class="st9" d="M353.74,393.62c-12.16,0-26.65-9.1-26.65-52.45c0-1.8-0.08-3.81-0.16-5.94
						c-0.47-12.01-1.11-28.46,11.21-36.53l0.59,0.91c-11.81,7.74-11.18,23.83-10.72,35.58c0.08,2.14,0.16,4.16,0.16,5.98
						c0,33.61,8.84,51.37,25.57,51.37V393.62z"/>
					<path id="Path_13" class="st9" d="M401.79,486.65h29.34c-18.18-2.27-22.16-10.23-24.44-21.03c-2.27-10.8-1.58-48.05-6.25-57.4
						c-8.86-17.72-18.08-13.12-50.26-15.69c10.4,1.13,15.6,5.07,20.92,15.69c4.67,9.35,3.98,46.6,6.25,57.4
						C379.62,476.42,383.6,484.38,401.79,486.65"/>
					<path id="Path_14" class="st9" d="M698.78,486.65c18.19-2.27,22.17-10.23,24.44-21.03c2.27-10.8,1.58-48.05,6.25-57.4
						c5.31-10.62,9.82-14.57,20.22-15.7c-32.17,2.57-40.71-2.03-49.56,15.7c-4.67,9.35-3.98,46.6-6.25,57.4
						c-2.27,10.79-6.25,18.76-24.44,21.03H698.78z"/>
					<rect id="Rectangle_3" x="407.83" y="450.68" class="st9" width="281.06" height="1.08"/>
					<path id="Path_15" class="st4" d="M720.25,571.49c-10.11,2.65-28.41-2.17-36.35-1.45c-7.95,0.72-26.49,0.73-28.41-5.3
						c-0.45-1.81-0.6-3.69-0.44-5.55c0.32-7.88,3.09-19.25,3.09-19.25s11.89,1.9,18.06,0.72c4.05-0.73,7.95-2.12,11.56-4.1
						c1.2,5.78,5.06,10.11,14.69,13.24c9.63,3.13,25.76,6.02,26.48,8.43c0.24,0.86,0.36,1.75,0.37,2.64
						C729.34,564.33,727.88,569.48,720.25,571.49"/>
					<path id="Path_16" class="st10" d="M720.25,571.49c-10.11,2.65-28.41-2.17-36.35-1.45c-7.95,0.72-26.49,0.72-28.41-5.3
						c-0.45-1.81-0.6-3.69-0.44-5.55c4.05,5.07,28.75,5.31,37.11,6.27s28.12,4.55,37.14-4.58
						C729.34,564.33,727.88,569.49,720.25,571.49"/>
					<path id="Path_17" class="st4" d="M696.09,574.56c-10.11,2.65-28.41-2.17-36.35-1.45c-7.95,0.72-26.48,0.73-28.41-5.3
						c-0.45-1.81-0.6-3.69-0.44-5.55c0.32-7.88,4.44-22.89,4.44-22.89s10.54,5.54,16.71,4.36c4.05-0.73,7.95-2.12,11.56-4.1
						c1.2,5.78,5.06,10.11,14.69,13.24c9.63,3.13,25.76,6.02,26.48,8.43c0.24,0.86,0.36,1.75,0.37,2.64
						C705.18,567.39,703.73,572.55,696.09,574.56"/>
					<path id="Path_18" class="st10" d="M704.4,561.37c-0.2-1.43-7.63-3.4-14.19-5.14c-3.63-0.96-7.37-1.96-10.55-2.99
						c-8.98-2.92-13.59-7.09-14.93-13.51l0.71-0.15c1.3,6.22,5.62,10.1,14.45,12.97c3.16,1.03,6.89,2.02,10.51,2.98
						c8.96,2.38,14.46,3.92,14.72,5.74L704.4,561.37z"/>
					<path id="Path_19" class="st10" d="M696.09,574.55c-10.11,2.65-28.41-2.17-36.35-1.45s-26.48,0.73-28.41-5.3
						c-0.45-1.81-0.6-3.69-0.44-5.55c4.05,5.07,28.75,5.31,37.1,6.27c8.35,0.97,28.12,4.56,37.14-4.58
						C705.18,567.39,703.73,572.55,696.09,574.55"/>
					<path id="Path_20" class="st11" d="M608.44,290.21c7.4,1.82,9.7,32.16,11.4,41.71c1.7,9.55,5.71,18.41,6.35,24.75
						c0.64,6.33-8.57,18.99-14.95,10.97c-6.37-8.02-12.5-18.77-15.98-38.62c-3.48-19.84-0.74-29.6,1.8-34.85
						S605.52,289.49,608.44,290.21"/>
					<path id="Path_21" class="st12" d="M600.8,369.03c3.4,5.01,14.89,10.67,22.12,13.66c10.89,4.5,72,21.79,73.27,31.28
						c1.27,9.49,7.6,90.54,0,101.09c0,0,4.64,4.93,1.27,10.27v11.25c0,0-6.19,10.87-28.15,4.96c0,0-25.99,6.23-36.33-0.96
						c0,0,2.16-93.72-2.14-105.2c-4.3-11.49-51.23-15.83-64.27-22.73c-13.04-6.91-13.54-35.23-13.54-35.23s16.53-15.12,29.2-13.24
						C594.88,366.06,600.8,369.03,600.8,369.03"/>
					<path id="Path_22" class="st13" d="M600.8,271.97c15.45,6.74,17.36,9.48,17.49,18.24c0,0,3.7-2.05,1.65,16.02
						c-2.05,18.07,2.83,25.51,1.21,25.28c-1.62-0.23-12.57,8.48-16.95,3.71c0,0,1.28,14.53-3.4,20.69c0,0-1.07,11.09,0,13.14
						c1.07,2.05,0.25,10.02-17.4,8.09c-10.1-1.2-20.31-1.1-30.38,0.3c0,0-11.78-79.99-10.71-93.13
						c1.07-13.13,24.37-16.71,24.37-16.71L600.8,271.97z"/>
					<path id="Path_23" class="st11" d="M562.94,302.31c7.49,1.42,11.38,31.61,13.57,41.05c2.2,9.45,6.67,18.09,7.64,24.38
						c0.96,6.29-7.56,19.42-14.35,11.74c-6.79-7.67-10.82-19.93-15.33-39.56c-4.51-19.63-4.93-27.68-2.68-33.06
						C554.05,301.49,559.98,301.75,562.94,302.31"/>
					<path id="Path_24" class="st13" d="M548.59,336.25c15.15,7.2,27.32,0,27.32,0s2.64-44.16-3.82-55.21
						c-6.46-11.05-10.44-9.84-17.27-7.91c-6.83,1.93-12.04,18.57-13.03,31.74c-0.99,13.17-1,23.84-1,23.84L548.59,336.25z"/>
					<path id="Path_25" class="st14" d="M562.35,339.97c-4.85-0.01-9.63-1.12-13.99-3.23l0.46-0.98c8.36,4.13,18.16,4.19,26.57,0.16
						c0.21-3.89,2.26-44.29-3.77-54.61l0.94-0.54c6.46,11.07,4,53.71,3.89,55.52l-0.02,0.29l-0.25,0.15
						C571.9,338.9,567.16,340.02,562.35,339.97"/>
					<path id="Path_26" class="st15" d="M626.3,216.7c6.75,2.06,11.19-1.04,10.38-5.74c-0.81-4.7-6.66-5.11-7.67-6.72
						c-1.01-1.61,2.82-7.26-5.85-8.88s-3.23-4.84-11.1-5.85s-6.11-5.65-14.05-4.03c-7.94,1.62-8.54,4.64-10.36,4.44
						c-1.82-0.2-11.3-2.42-13.72,8.07c0,0-12.51,2.75-10.09,12.97c2.42,10.23,4.41,8.41,2.71,13.25c-1.7,4.84,2.74,9.89,5.16,12.51
						c2.42,2.62-1.41,11.7,2.62,15.13s19.57,1.42,27.84-11.3C610.45,227.84,626.3,216.7,626.3,216.7"/>
					<path id="Path_27" class="st11" d="M626.3,216.7c2.83,9.89,1.3,14.57,1.9,19.82c0.61,5.25,2.62,8.68,2.62,10.09
						s-3.23,3.23-6.46,2.22c0,0-4.44,15.13-6.66,17.55s-5.25,1.61-6.05,1.41c-0.8-0.2-7.47-4.03-7.47-4.03s-5.88,4.79-8.82,11
						c-3.18,6.69,4.78,12.22-4.48,15.45c-4.4,1.53-24.82-8.49-25.63-16.16c-0.81-7.67,6.46-10.09,9.08-22.19
						c0,0,3.63-2.82,6.66-2.22s7.47-4.64,7.47-4.64s-5.45-11.71-0.61-14.73c4.84-3.02,7.26,6.66,7.26,6.66s2.76,0.81,2.89-0.2
						c0.13-1.01-0.67-5.85,3.36-7.87s2.82-4.64,4.03-10.89c1.21-6.25,5.24-7.47,8.67-6.86c3.43,0.61,5,0.21,6.97,2.23
						C622.51,214.86,624.31,216.01,626.3,216.7"/>
					<path id="Path_28" class="st16" d="M619.54,256.25c-1.83,0-3.99-1.2-5.32-1.93c-0.28-0.17-0.57-0.32-0.86-0.45l0.23-1.06
						c0.41,0.14,0.8,0.33,1.16,0.56c1.24,0.69,3.54,1.97,5.12,1.78l0.13,1.07C619.85,256.24,619.7,256.25,619.54,256.25"/>
					<path id="Path_29" class="st17" d="M603.91,264.22c-0.25-0.15-6.1-3.74-7.34-4.75c-1.48-1.21-2.67-4.24-1.78-8.03l1.05,0.25
						c-0.9,3.84,0.53,6.23,1.41,6.95c1.18,0.96,7.16,4.63,7.22,4.66L603.91,264.22z"/>
					<path id="Path_30" class="st15" d="M613.53,229.47c8.13-4.32,9-0.39,10.43-1.66c1.73-1.55-0.14-2.85-2.46-3.32
						c-2.32-0.47-6.48,1.33-8.18,3.15C611.63,229.45,613.12,229.68,613.53,229.47"/>
					<path id="Path_31" class="st16" d="M620.47,234.89c0,1.44-0.84,2.6-1.88,2.6c-1.04,0-1.89-1.16-1.89-2.6s0.84-2.6,1.89-2.6
						C619.63,232.29,620.47,233.45,620.47,234.89"/>
					<path id="Path_32" class="st16" d="M589.39,241.22c-0.09-0.18-2.2-4.44-1.41-6.79c0.19-0.76,0.74-1.37,1.47-1.63
						c0.89-0.18,1.82,0.04,2.54,0.6l-0.65,0.87l0.32-0.43l-0.32,0.43c-0.45-0.35-1.02-0.5-1.58-0.43c-0.39,0.18-0.67,0.53-0.76,0.94
						c-0.54,1.6,0.79,4.85,1.35,5.96L589.39,241.22z"/>
					<path id="Path_33" class="st17" d="M592.08,248.17c-0.31,0-0.62-0.04-0.92-0.13c-1.39-0.47-2.53-1.47-3.17-2.79l0.96-0.51
						c0.5,1.05,1.41,1.87,2.51,2.25c0.57,0.17,1.18,0.1,1.69-0.21l0.56,0.93C593.21,248.01,592.65,248.17,592.08,248.17"/>
					<path id="Path_34" class="st18" d="M621.3,204.93c-0.15-0.15-0.22-0.36-0.19-0.57c0.06-0.36,0.41-0.56,0.87-0.82
						c1.38-0.51,2.15-1.98,1.78-3.41c-0.25-1.35-1.11-1.34-3.03-1.2c-2.2,0.16-5.21,0.38-8-2.66l0.53-0.49
						c2.55,2.78,5.25,2.58,7.41,2.43c1.76-0.13,3.41-0.25,3.79,1.8c0.41,1.72-0.49,3.48-2.13,4.15c-0.19,0.09-0.36,0.21-0.52,0.35
						l0.01-0.04L621.3,204.93z"/>
					<path id="Path_35" class="st18" d="M577.56,243.51l-0.67-0.27c0.02-0.05,1.88-4.87,0.01-8.71c-0.33-0.68-0.72-1.41-1.13-2.2
						c-2.06-3.9-4.63-8.75-2.02-11.05l0.47,0.54c-2.18,1.92,0.24,6.5,2.18,10.17c0.41,0.78,0.81,1.53,1.14,2.21
						C579.56,238.35,577.64,243.3,577.56,243.51"/>
					<path id="Path_36" class="st18" d="M578.84,230.09c-1.01-3.68-0.63-7.6,1.07-11.02l0.64,0.35c-2.66,4.9-1.03,10.41-1.01,10.47
						L578.84,230.09z"/>
					<path id="Path_37" class="st14" d="M603.65,335.23c-0.11-3.14,0.62-7.29,1.33-11.3c0.32-1.79,0.65-3.65,0.89-5.39
						c0.4-3.8,0.48-7.62,0.23-11.43c-0.08-2.48-0.17-5.04-0.12-7.72l1.08,0.02c-0.04,2.65,0.04,5.2,0.12,7.67
						c0.25,3.87,0.17,7.76-0.24,11.62c-0.25,1.76-0.58,3.62-0.9,5.42c-0.7,3.96-1.42,8.05-1.32,11.07L603.65,335.23z"/>
					<path id="Path_38" class="st14" d="M605.9,323.85l-0.53-0.95c1.88-1.06,2.41-3.16,2.96-5.4c0.5-2.01,1.02-4.08,2.52-5.7
						l0.79,0.74c-1.18,1.52-1.96,3.32-2.27,5.23C608.8,320.12,608.19,322.56,605.9,323.85"/>
					<path id="Path_39" class="st14" d="M615.37,298.57l-0.65-0.87c2.98-2.23,3.01-7.44,3.01-7.49h1.08
						C618.82,290.44,618.78,296.02,615.37,298.57"/>
					<path id="Path_40" class="st11" d="M617.75,351.81c5.49-1.05,16.73,7.73,28.74,30.02c11.29,20.95,23.39,21.67,27.19,26.32
						c3.8,4.65,11.61,16.04,11.61,17.31c0,1.27-4.43,2.95-9.29-4.43c-3.27-4.72-7.51-8.68-12.45-11.61c0,0-1.66,3.41-14.32-7.06
						c-12.67-10.46-17.7-11-26.31-19.68c-7.67-7.73-8.82-11.41-14.02-18.43C603.55,357.01,617.75,351.8,617.75,351.81"/>
					<path id="Path_41" class="st11" d="M576.25,370.22c4.28-3.01,9.53-3.1,29.38,6.59c19.86,9.69,42.8,20.85,44.69,24.39
						c1.89,3.55,0.25,10.39-10.18,6.95c-10.43-3.44-58.35-15.16-66.98-24.21C564.54,374.89,576.25,370.22,576.25,370.22"/>
					<path id="Path_42" class="st11" d="M644.22,397.17c8.59,3.08,24.5,8.85,30.21,11.92c5.71,3.07,11.87,6.89,9.68,8.69
						c-2.2,1.8-17.29-6.19-17.29-6.19s4.75,12.49,14.12,14.36c0,0-1.3,13.29-10.25,8.32c-8.95-4.97-9.19-11.87-15.15-16.49
						c-5.96-4.62-11.23-8.48-15.4-9.63c-4.17-1.15-7.12-6.39-4.22-9.95C638.82,394.65,644.22,397.17,644.22,397.17"/>
					<path id="Path_43" class="st17" d="M683.09,418.56c-3.93,0-13.39-4.82-16.53-6.49l0.51-0.96c7.27,3.85,15.5,7.24,16.7,6.25
						c0.18-0.11,0.27-0.31,0.25-0.52c-0.09-0.95-1.87-2.98-9.84-7.27c-6.1-3.28-24.19-9.76-30.14-11.89l0.36-1.02
						c5.97,2.14,24.12,8.63,30.28,11.96c7.02,3.78,10.23,6.29,10.41,8.12c0.06,0.57-0.19,1.12-0.64,1.47
						C684.05,418.47,683.58,418.6,683.09,418.56"/>
					<path id="Path_44" class="st17" d="M678.92,432.9c-7.16-0.43-10.62-5.96-13.14-10l0.91-0.59l0.01,0.02
						c2.4,3.84,5.68,9.09,12.29,9.49L678.92,432.9z"/>
					<path id="Path_45" class="st4" d="M670.36,536.68l-0.7-0.18c0.18-0.89,0.22-21.94-0.33-46.63c-0.39-17.53-1.36-48.3-3.46-57.43
						l0.7-0.16c2.02,8.74,3,36.21,3.48,57.72C670.59,514.08,670.59,535.78,670.36,536.68"/>
					<path id="Path_46" class="st11" d="M589.66,411.94c10.98,5.09,37.36,18,40.27,20.63c7.42,6.7,10.63,56.79,11.7,66.17
						c1.07,9.38-13.66,6.16-18.22-3.21s-9.64-43.4-9.64-43.4s-37.79-13.12-44.61-21.7c-6.82-8.58-5.22-12.6,0.95-18.49
						C576.27,406.05,589.66,411.94,589.66,411.94"/>
					<path id="Path_47" class="st11" d="M573.32,419.45c7.77,2.41,26.28,4.56,29.88,9.91c3.6,5.36,5.43,62.52,13.2,80.47
						c7.77,17.95-17.65,6.46-20.98-5.46c-2.47-8.84-17.55-56.53-17.55-56.53s-16.34-0.8-25.45-4.82s-15.54-20.09-7.5-23.58
						C552.96,415.96,573.32,419.45,573.32,419.45"/>
					<path id="Path_48" class="st17" d="M606.07,449.64c-0.95-8.69-2.06-18.12-3.32-19.98c-2.45-3.64-12.64-5.83-20.83-7.6
						c-3.35-0.72-6.52-1.4-8.77-2.1l0.32-1.03c2.2,0.69,5.35,1.36,8.67,2.08c8.82,1.9,18.8,4.04,21.5,8.05
						c1.26,1.87,2.24,8.92,3.5,20.47L606.07,449.64z"/>
					<path id="Path_49" class="st4" d="M663.87,522.05c-0.03,0.64-0.19,1.26-0.46,1.83c-0.3,0.65-0.65,1.27-1.06,1.85
						c-0.58,0.85-1.62,1.25-2.63,1.02c-6.29-1.47-30.02-7.26-44.69-14.46c-1.07-0.53-1.62-1.73-1.3-2.88
						c0.3-1.14,0.67-2.26,1.1-3.36c0.32-0.79,0.68-1.56,1.1-2.3c1.82-3.14,7.49-8.22,7.49-8.22c5.09,3.21,14.73,5.09,18.22,3.21
						c0,0,6.42,8.84,13.66,12.86C662.54,515.62,663.87,519.9,663.87,522.05"/>
					<path id="Path_50" class="st10" d="M663.41,523.88c-0.3,0.65-0.65,1.27-1.06,1.85c-0.58,0.85-1.63,1.25-2.63,1.02
						c-6.29-1.47-30.02-7.26-44.68-14.46c-1.07-0.53-1.61-1.73-1.31-2.88c0.31-1.14,0.68-2.26,1.11-3.35
						C616.96,509.41,652.11,522.46,663.41,523.88"/>
					<path id="Path_51" class="st4" d="M641.51,525.8c0.1,0.63,0.06,1.27-0.09,1.89c-0.17,0.69-0.39,1.37-0.68,2.02
						c-0.4,0.95-1.35,1.55-2.38,1.52c-6.46-0.22-30.86-1.26-46.65-5.46c-1.15-0.31-1.92-1.39-1.85-2.58
						c0.08-1.17,0.22-2.34,0.43-3.5c0.15-0.84,0.36-1.67,0.62-2.48c1.16-3.43,5.73-9.52,5.73-9.52c5.62,2.16,15.44,2.12,18.5-0.41
						c0,0,8.03,7.42,15.91,9.95C638.94,519.75,641.09,523.7,641.51,525.8"/>
					<path id="Path_52" class="st10" d="M641.41,527.68c-0.16,0.69-0.39,1.37-0.68,2.02c-0.4,0.95-1.35,1.55-2.38,1.52
						c-6.45-0.22-30.86-1.26-46.65-5.46c-1.15-0.31-1.92-1.39-1.84-2.58c0.07-1.17,0.22-2.34,0.43-3.5
						C593.03,522.56,630.06,528.5,641.41,527.68"/>
					<path id="Path_53" class="st11" d="M566.81,372.96c3.83,6.44,11.52,23.04,15.03,25.62s20.54,14.16,21.83,14.45
						c1.29,0.29,13.59,1.43,15.88,5.36s4.79,9.36,3.43,10.09c-1.36,0.73-6.57-0.01-18.16-5.44c-11.59-5.44-30.61-16.45-33.19-19.89
						c-2.57-3.43-10.39-14.59-11.56-20.46c-1.17-5.86-3.12-11.07,0-11.83C563.21,370.1,566.81,372.96,566.81,372.96"/>
					<path id="Path_54" class="st17" d="M622.75,428.92c-9.28-4.99-25.31-12.77-33.31-16.48l0.45-0.98
						c8.02,3.72,24.07,11.52,33.37,16.51L622.75,428.92z"/>
					<path id="Path_55" class="st11" d="M533.54,384.88c6.93,8.92,26.24,30.36,28.95,36.28c2.71,5.92-2.54,9.11-9.32,3.49
						c-8.93-7.41-30.78-23.29-32.93-31.85c-1.5-5.97,2.96-11.01,7.83-10.66C530.97,382.35,533.54,384.88,533.54,384.88"/>
					<path id="Path_56" class="st4" d="M540.66,404.36c5.88,1.64,26.53-6.43,30.36-12.17c0,0,5.34,6.7,6.84,10.94
						c0,0,3.42,1.23,4.38,3.42c0,0,12.03,3.42,13.13,6.02c0,0-9.26,4.94-12.08,9.24c0,0-8.84,1.29-11.3,10.18
						c-1.42,4.91-2.36,9.94-2.83,15.03c0,0-19.6-1.08-23.84-7.24c-4.25-6.15-6.57-10.67-5.61-19.42
						C540.66,411.61,540.66,404.36,540.66,404.36"/>
					<path id="Path_57" class="st10" d="M584.5,422.42l-1.28-0.26c-0.51-0.1-12.61-2.59-16.03-5.63l0.48-0.54
						c2.64,2.35,11.16,4.45,14.41,5.19c-1.81-1.73-5.59-5.48-6.34-7.53l0.68-0.25c0.92,2.49,7.04,8.09,7.11,8.14L584.5,422.42z"/>
					<path id="Path_58" class="st14" d="M554.02,338.62c5.03,1.15,10.18,4.44,11.33,6.73c1.14,2.29,4.72,27.47,4.72,27.47
						s-0.72,2.78-5.87,2.61s-7.73,0.01-7.73,0.01s-3.38-33.83-3.91-35.6C552.04,338.06,554.02,338.62,554.02,338.62"/>
					<path id="Path_59" class="st14" d="M533.42,336.25c-2.83,1.8-14.99,6.8-18,16.82c-3.01,10.02-1.43,35.2-1.43,35.2
						s15.59,2.29,21.89-0.86c0,0,1,10.87,4.79,16.95c6.4,1.62,13.12,1.45,19.42-0.5c10.13-3.29,10.94-11.67,10.94-11.67
						s-4.79-10.5-6.31-13.36c-1.52-2.86,0.92-23.32-3.52-30.05c-4.44-6.73-7.27-8.7-7.27-8.7L533.42,336.25z"/>
					<path id="Path_60" class="st18" d="M586.48,301.24c0.84,2.47,0.93,5.14,0.27,7.66c0,0,12.59-13.68-16.27-31.05
						c1.11-0.35,2.31-0.35,3.42,0c0,0-3.55-5.06-15.18-3.28c0,0-2.73-3.15-8.34,1.09c-0.07-0.78,0.13-1.56,0.55-2.22
						c0,0-6.98,1.81-7.11,5.64c0,0-8.2,1.78-9.57,8.07c0,0,2.87-2.19,3.97-1.23c0,0-9.3,9.98-6.97,20.1s2.46,16.96,5.06,19.01
						c2.6,2.05,11.2,3.23,22.43-1.51C588.26,311.08,586.48,301.23,586.48,301.24"/>
					<path id="Path_61" class="st11" d="M586.48,301.24c1.51,3.97-3.69,11.21-6.43,16.27c-1.61,2.77-2.33,5.97-2.05,9.16
						c0,0-1.23,2.19-5.34,1.5c0,0-4.51,9.85-10.12,9.3c-5.61-0.55-7.66-2.05-7.66-2.05c-0.65,1.47-0.97,3.05-0.96,4.65
						c0,2.73-5.47,5.47-12.99,0.82l-7.52-4.65c0,0,3.55-8.75,2.87-11.21c2.27,0.98,4.84,0.98,7.11,0c1.74-0.85,3.32-2.01,4.65-3.42
						c0,0-4.24-0.27-4.38-6.29c-0.13-6.02,3.14-8.75,5.6-7.8s3.42,7.25,3.42,7.25s1.64,1.64,3.01,0c1.37-1.64,1.64-5.61,7.11-7.52
						s9.57-7.39,9.57-7.39s-0.35,5.47-4.96,7.66c0,0,7.15,3.01,13.03-5.88c0,0,0.82,5.74-0.55,7.93c0,0,3.29-1.64,4.65-4.1
						C585.33,304.13,585.97,302.71,586.48,301.24"/>
					<path id="Path_62" class="st16" d="M546.13,315.08l-1.08-0.05c0.09-2,0.67-3.4,1.73-4.18c0.8-0.57,1.81-0.77,2.77-0.56
						l-0.27,1.05c-0.65-0.13-1.33,0.01-1.87,0.39C546.64,312.31,546.21,313.43,546.13,315.08"/>
					<path id="Path_63" class="st16" d="M568.83,329.97c-1.3-0.95-2.82-1.57-4.42-1.8l0.11-1.08c1.8,0.25,3.51,0.94,4.97,2.03
						L568.83,329.97z"/>
					<path id="Path_64" class="st17" d="M554.62,335.9c-1.5-0.84-2.82-1.98-3.89-3.33l0.93-0.56c0.97,1.2,2.16,2.2,3.5,2.96
						L554.62,335.9z"/>
					<path id="Path_65" class="st18" d="M569.37,314.29c-0.04,0.05-0.04,0.13,0.02,0.18c0.03,0.03,0.08,0.04,0.12,0.02
						c2.74-0.63,5.6-0.43,8.22,0.57c0.78,0.08,0.55-1.53-0.44-1.99c-1.84-0.64-3.83-0.73-5.72-0.26
						C570.69,313.06,569.92,313.58,569.37,314.29"/>
					<path id="Path_66" class="st16" d="M574.85,318.66c-0.32,0.96-1.13,1.56-1.82,1.34c-0.76-0.43-1.05-1.38-0.66-2.16
						c0.32-0.97,1.13-1.57,1.82-1.34C574.88,316.72,575.17,317.69,574.85,318.66"/>
					<path id="Path_67" class="st15" d="M537.29,321.83c-0.95-1.53-2.49-8.65-2.63-12.09l0.72-0.03c0.14,3.54,1.71,10.42,2.52,11.74
						L537.29,321.83z"/>
					<path id="Path_68" class="st15" d="M537.24,313.43c-0.08-0.34-1.87-8.37,0.02-13.42l0.67,0.25c-1.8,4.85,0,12.93,0.02,13.01
						L537.24,313.43z"/>
					<path id="Path_69" class="st15" d="M584.17,295.67c-0.02-0.06-2.01-6.04-6.61-8.37l0.32-0.64c4.86,2.47,6.89,8.53,6.97,8.79
						L584.17,295.67z"/>
					<path id="Path_70" class="st13" d="M564.4,378.99c-0.6-1.13-0.62-4.41-0.65-8.94c-0.05-7.14-0.11-16.92-2.85-21.08
						c-0.19-0.29-0.38-0.56-0.56-0.83l0.6-0.4c0.18,0.27,0.37,0.55,0.56,0.84c2.86,4.33,2.92,14.24,2.97,21.47
						c0.03,4.09,0.05,7.63,0.57,8.6L564.4,378.99z"/>
					<path id="Path_71" class="st13" d="M535.04,387.97l0.54-0.77c0.04-0.05,3.53-5.18,2.79-14.93l0.72-0.05
						c0.59,7.83-1.43,12.7-2.42,14.55c1.82-0.66,3.34-1.97,4.27-3.67l0.65,0.32c-1.2,2.16-3.24,3.74-5.63,4.34L535.04,387.97z"/>
					<path id="Path_72" class="st11" d="M531.51,404.52c7.72-1.01,19.35,5.62,21.39,22.35c2.04,16.73,7,105.11,4.07,108.5
						c-2.93,3.39-11.15,9.27-17.44-11.3c-6.29-20.57-20.31-92-21.89-102.85C516.05,410.36,525.66,405.28,531.51,404.52"/>
					<path id="Path_73" class="st11" d="M547.75,420.47c7.11-1.57,18.47,3.89,21.69,19.73c3.22,15.85,14.87,100.03,12.4,103.5
						s-7.92,9.78-15.41-9.42c-2.42-6.19-5.15-19.33-8.97-32.01c-8.04-26.6-19.72-57.81-21.3-64.76
						C533.82,427.25,542.36,421.65,547.75,420.47"/>
					<path id="Path_74" class="st17" d="M557.37,535.73l-0.82-0.71c0.89-1.1,1.28-14.54-0.31-48.96
						c-1.1-24.05-2.85-50.57-3.89-59.12c-1.22-10.07-5.75-15.5-9.33-18.27c-3.53-2.74-7.8-4.08-11.44-3.6l-0.14-1.07
						c4.43-0.39,8.83,0.99,12.25,3.82c5.3,4.1,8.76,10.85,9.75,19c1.04,8.59,2.79,35.19,3.9,59.3c0.61,13.39,0.98,24.89,1.06,33.24
						C558.54,534.39,557.72,535.33,557.37,535.73"/>
					<path id="Path_75" class="st12" d="M488.41,368.45c1.96,7.7,34.4,30.02,38.16,32.52c0,0-6.15,9.49-4.63,25.32
						c1.52,15.83-16.48,38.16-16.48,38.16c-9.26-7.97-21.07-12.36-33.28-12.36c-20.5,0-42.11-1.74-50.5-12.36
						c-8.38-10.63-7.07-32.24-4.04-39.32c3.03-7.08,5.02-12.77,5.02-12.77s1.13-13.13,15.58-17.95
						C473.21,358.02,488.41,368.45,488.41,368.45"/>
					<path id="Path_76" class="st11" d="M489.35,324.15c0.51,0.65,9.18,32.52,11.56,37.07c2.38,4.56,22.34,31.21,22.34,31.21
						s3.45,13.55-19.09-4.6c-22.54-18.15-18.35-17.12-20.77-23.38c-2.42-6.26-9.36-30.98-8.28-38.57c1.08-7.59,8.71-8.23,10.97-6.07
						C487.4,321.07,488.51,322.54,489.35,324.15"/>
					<path id="Path_77" class="st19" d="M416.87,227.9c-12.51,1.57-16.6,7.34-16.24,17.45c0.36,10.11,0.72,13.72-3.25,17.08
						c-3.97,3.37-0.84,8.52-4.57,12.32s-8.66,17.27-3.85,24.01c4.81,6.74,4.81,9.14,4.81,9.14l27.92-29.64c0,0,9.21-5.96,3.58-15.11
						c-5.63-9.14-8.91-12.44-6.22-21.01C420.72,237.33,419.9,232,416.87,227.9"/>
					<path id="Path_78" class="st10" d="M464.43,271.04c4.13,4.52,10.58,5.08,15.19,11.3s14.09,43.96,14.09,43.96
						c-2.76-0.97-5.83,0.02-7.5,2.43c0,0-4.19,21.4,2.21,39.72c0,0-5.52,9.27-16.55,10.59c-11.03,1.32-24.27,8.16-34.42,8.6
						c-4.92,0.3-9.86,0.3-14.78,0c0,0-5.96-63.54-6.18-85.38c-0.03-3.14-12.27-14.56-10.13-15.61c13.31-6.56,15.33-8.39,15.33-8.39
						L464.43,271.04z"/>
					<path id="Path_79" class="st11" d="M399.13,308.22c-6.19,4.46-9.12,27.67-5.99,56.24s8.02,34.56,12.98,37.42
						c4.95,2.86,14.5-3.37,15.39-27.08c0.89-23.71-1.51-55.25-4.67-62.27C413.67,305.51,402.52,305.77,399.13,308.22"/>
					<path id="Path_80" class="st10" d="M406.89,286.37c-9.87,4.93-12.68,16.33-14.23,25.59s-5.7,27.58-5.7,27.58s7.02-4.41,11.65,0
						s10.78,4.8,15.51,4.19c4.73-0.61,12.96,4.85,12.96,4.85c1.47-11.19,1.91-22.49,1.31-33.76c-1.1-17.21-2.29-27.78-9.35-29.42
						C415,284.43,410.74,284.77,406.89,286.37"/>
					<path id="Path_81" class="st4" d="M427.45,348.64l-0.71-0.11c1.46-11.16,1.89-22.44,1.31-33.68
						c-1.09-17.04-2.25-27.5-9.07-29.09l0.16-0.7c7.31,1.7,8.52,12.38,9.63,29.75C429.35,326.11,428.91,337.43,427.45,348.64"/>
					<path id="Path_82" class="st4" d="M486.57,328.78l-0.71-0.09c0.81-5.85-5.8-33.89-9.43-43.68l0.68-0.25
						C480.85,294.85,487.4,322.72,486.57,328.78"/>
					<path id="Path_83" class="st4" d="M472.85,374.87c-0.02-0.09-2.05-9.49-2.99-31.48c-0.96-22.21-2.13-28.32-7-36.26l0.61-0.38
						c4.95,8.08,6.14,14.24,7.1,36.61c0.95,21.92,2.97,31.27,2.98,31.36L472.85,374.87z"/>
					<path id="Path_84" class="st20" d="M464.43,271.04c4.72,1.73,5.92,2.08,5.55,5.55c-0.36,3.47-1.79,5.38,0.72,9.2
						c2.51,3.82,1.55,8.48-0.72,11.83c-2.27,3.34-0.12,4.9-0.12,6.81c0,1.91-2.63,10.87-2.63,10.87s-3.23-4.42-6.45-3.94
						c-3.23,0.48-4.42-2.81-6.57-3.14c-2.15-0.33-7.29,1.23-6.93-3.67s-6.69-0.12-9.32-3.7c-2.63-3.58-2.99-5.03-7.65-5.03
						c-4.66,0-5.29-2.12-5.75-5.48c-0.46-3.36-7.61-0.61-8.45-5.39c-0.85-4.78,2.78-6.22,5.58-6.7S464.43,271.04,464.43,271.04"/>
					<path id="Path_85" class="st11" d="M437.62,244.45c-0.65,17.44-8.61,30.15-15.93,33.81c0,0,32.52,11.63,38.76,25.2
						c0,0,7.32-24.98,5.6-29.5c-1.72-4.52-4.12-2.87-0.66-10.15c3.46-7.28-13.77-25.17-20.23-25.17
						C441.57,238.49,438.39,240.94,437.62,244.45"/>
					<path id="Path_86" class="st19" d="M478.18,209.95c2.09-1.13,2.86-3.74,1.73-5.83c-0.4-0.73-1-1.33-1.73-1.73
						c-2.85-1.5-6.82-0.96-8.54-3.97s-8.8-6.01-17.49-4.4c-8.69,1.61-10.83,8.51-15.98,7.74c-5.15-0.76-9.34,3.2-11.8,8.19
						c-2.46,4.99-6.12,8.43-5.15,14.65c0.97,6.22,2.9,9.87,5.36,15.24s3.01,6.33,2.36,9.76s3.86,10.88,8.58,8.34
						c4.72-2.55,4.45-12.64,7.58-16.66c3.14-4.02,14.24-2.84,18.35-4.77c4.1-1.93,10.44-4.83,11.73-12.55
						C474.08,219.05,475.76,214.32,478.18,209.95"/>
					<path id="Path_87" class="st10" d="M414.95,228.51c-2.53-3.37,1.35-8.9,4.1-6.02c2.75,2.88,5.16,2.77,6,6.02
						s-1.07,6.79-0.47,11.33c0.6,4.55-8.43,3.69-7.1-1.54S414.94,228.5,414.95,228.51"/>
					<path id="Path_88" class="st11" d="M478.18,209.95c4.12,2.74,6.39,11.67,6.61,18.99s4.15,15.53,4.52,16.36
						c0.47,1.06-3.01,3.29-6.57,3.01c0,0-0.32,17.88-6.57,18.74c-4.01,0.55-8.82-1.2-14.31-6.01c-3.65-3.31-6.94-7-9.81-11.01
						c0,0-6.04,4.19-9.9-12.33c-3.01-12.85,7.78-10.51,9.31-4.21c0.45,1.85,0.6,2.98,1.25,3.19c0.65,0.22,3.45-3.01,5.17-1.94
						c1.72,1.07,10.25-0.53,11.63-8.61C471.87,212.26,478.18,209.95,478.18,209.95"/>
					<path id="Path_89" class="st17" d="M465.09,264.24c-0.12-0.08-0.37-0.21-0.69-0.37c-2.21-1.13-8.09-4.12-12.83-13.59l0.97-0.49
						c4.59,9.15,10.24,12.02,12.36,13.11c0.28,0.13,0.54,0.27,0.8,0.43L465.09,264.24z"/>
					<path id="Path_90" class="st17" d="M461.89,282.55c-2.86-7.04,1.44-15.3,1.62-15.65l0.96,0.51c-0.04,0.08-4.24,8.17-1.58,14.73
						L461.89,282.55z"/>
					<path id="Path_91" class="st17" d="M456.9,284.31c-0.36-3.05-1.75-5.88-3.94-8.04l0.77-0.77c2.39,2.34,3.9,5.43,4.25,8.76
						L456.9,284.31z"/>
					<path id="Path_92" class="st16" d="M480.25,235.9c0,1.32-0.75,2.4-1.67,2.4s-1.67-1.07-1.67-2.4c0-1.33,0.75-2.4,1.67-2.4
						S480.25,234.57,480.25,235.9"/>
					<path id="Path_93" class="st19" d="M480.1,228.95c-3.02-1.38-7.74,1.9-7.2,2.98c0.54,1.08,1.84,0.83,3.31-0.13
						c1.47-0.96,3.53-0.87,4.14-0.98C481.19,230.67,481.28,229.48,480.1,228.95"/>
					<path id="Path_94" class="st16" d="M479.61,256.83c-3.22-0.18-6.2-1.74-8.18-4.29l0.85-0.68c1.78,2.27,4.44,3.69,7.33,3.89
						V256.83z"/>
					<path id="Path_95" class="st16" d="M482.74,248.87c-1.39-0.1-2.72-0.59-3.85-1.42l0.62-0.89c0.95,0.7,2.06,1.12,3.23,1.23
						L482.74,248.87z"/>
					<path id="Path_96" class="st16" d="M446.45,241.59c-2.64-3.75-2.81-7.73-1.3-9.09c0.44-0.4,1.69-1.15,3.73,0.59l-0.7,0.82
						c-0.57-0.49-1.63-1.22-2.3-0.61c-1,0.91-0.92,4.27,1.47,7.67L446.45,241.59z"/>
					<path id="Path_97" class="st21" d="M459.67,225.85l-0.44-0.57c2.3-2.15,3.46-5.25,3.13-8.38c-0.39-6.21,1.59-9.56,6.63-11.21
						l0.22,0.69c-4.67,1.52-6.5,4.65-6.14,10.47C463.47,222.88,459.82,225.73,459.67,225.85"/>
					<path id="Path_98" class="st21" d="M467.56,217.86c-0.01-0.26-0.18-6.26,3.63-8.22l0.33,0.64c-3.41,1.76-3.24,7.5-3.24,7.56
						L467.56,217.86z"/>
					<path id="Path_99" class="st21" d="M425.9,219.42l-0.71-0.16c0.82-3.71,5.1-9.16,12.02-9.67l0.05,0.72
						C430.71,210.8,426.67,215.93,425.9,219.42"/>
					<path id="Path_100" class="st21" d="M426.63,225.16l-0.67-0.25c0.05-0.14,1.31-3.35,4.52-3.35c2.03,0,4.62-0.46,5.79-1.76
						c0.48-0.52,0.7-1.22,0.61-1.92l0.72-0.07c0.11,0.9-0.18,1.81-0.79,2.47c-1.67,1.86-5.27,2-6.33,2
						C427.76,222.28,426.68,225.04,426.63,225.16"/>
					<path id="Path_101" class="st21" d="M403.27,268.88l-0.71-0.14c0.02-0.08,0.42-2.08,3.81-5.02c2.96-2.56,2.6-8.14,1.02-12.23
						c-0.87-2.25-3.21-9.89,3.29-13.51l0.35,0.63c-5.99,3.34-3.79,10.5-2.97,12.62c1.29,3.33,2.49,9.83-1.22,13.03
						C403.68,267.01,403.27,268.86,403.27,268.88"/>
					<path id="Path_102" class="st21" d="M396.69,291.44c-4.14-9.85,3.76-14.07,7.14-15.88c3.51-1.87,4.45-4.63,5.54-7.82
						c0.14-0.4,0.28-0.81,0.42-1.22l0.68,0.24c-0.15,0.41-0.28,0.82-0.42,1.21c-1.09,3.2-2.12,6.22-5.89,8.23
						c-4.98,2.66-10.26,6.76-6.81,14.96L396.69,291.44z"/>
					<path id="Path_103" class="st20" d="M465.13,321.37c0.24,1.77-0.45,3.31-1.53,3.46s-2.14-1.17-2.38-2.94
						c-0.24-1.77,0.45-3.31,1.53-3.46C463.83,318.29,464.89,319.6,465.13,321.37"/>
					<path id="Path_104" class="st20" d="M466.28,343.03c0,1.78-0.88,3.23-1.97,3.23s-1.97-1.45-1.97-3.23s0.88-3.23,1.97-3.23
						S466.28,341.25,466.28,343.03"/>
					<path id="Path_105" class="st20" d="M467.24,364.46c0,1.78-0.89,3.23-1.98,3.23s-1.97-1.45-1.97-3.23
						c0-1.78,0.88-3.23,1.97-3.23S467.24,362.68,467.24,364.46"/>
					<path id="Path_106" class="st4" d="M428.97,343.26l-0.56-0.45c0.05-0.07,5.26-6.54,5.01-13.36l0.72-0.03
						C434.41,336.52,429.2,343,428.97,343.26"/>
					<path id="Path_107" class="st11" d="M415.99,380.25c17.8,4.69,64.05,13.57,73.36,18.38s5.48,13.41-8.92,12.62
						c-18.98-1.04-63.18-0.84-74.33-9.38c-7.76-5.95-6.76-16.13,0-20.06C410.13,379.47,415.99,380.25,415.99,380.25"/>
					<path id="Path_108" class="st20" d="M482.39,393.51c-0.11,0.89-0.92,1.53-1.81,1.42c-0.89-0.11-1.53-0.92-1.42-1.81
						c0.1-0.82,0.8-1.43,1.62-1.43C481.72,391.74,482.44,392.56,482.39,393.51"/>
					<path id="Path_109" class="st20" d="M481.61,411.46c-0.11,0.89-0.93,1.53-1.82,1.41s-1.53-0.93-1.41-1.82
						c0.1-0.82,0.8-1.43,1.62-1.43C480.95,409.69,481.67,410.51,481.61,411.46"/>
					<path id="Path_110" class="st11" d="M476.19,394.32c6.68,1.11,13.49,1.28,20.21,0.51c2.7-0.35,11.51-3.64,17.62-1.88
						c6.11,1.76,17.26,5.87,17.49,8.57c0,0,4.58,0.59,5.05,3.29c0,0,3.29,0.24,2.94,2.82c-0.35,2.58-5.05,2.35-5.05,2.35
						s2.82,2.11,0.35,3.76c-2.47,1.64-25.48,2.58-31.59,2.82c-6.1,0.23-11.86-0.49-22.78-5.3c-10.92-4.81-11.74-9.97-11.62-13.26
						C468.93,394.71,476.19,394.31,476.19,394.32"/>
					<path id="Path_111" class="st17" d="M536.03,404.91c-0.4-2.27-4.54-2.84-4.59-2.84l-0.43-0.06l-0.04-0.43
						c-0.17-1.94-8.98-5.75-17.11-8.1c-1.18-0.32-2.39-0.49-3.61-0.49l0.02-1.08c1.31,0.01,2.62,0.19,3.89,0.53
						c0.17,0.05,16.31,4.75,17.78,8.62c1.17,0.21,4.69,1.07,5.14,3.67L536.03,404.91z"/>
					<path id="Path_112" class="st17" d="M503.23,417.1l-0.04-1.08c18.09-0.7,29.79-1.72,31.31-2.73c0.42-0.21,0.71-0.61,0.77-1.08
						c0.02-0.74-0.82-1.55-1.15-1.8l-1.4-1.06l1.75,0.09c0.04,0,4.21,0.14,4.49-1.88c0.09-0.44-0.02-0.9-0.3-1.26
						c-0.58-0.55-1.34-0.88-2.14-0.94l0.08-1.08c1.1,0.08,2.13,0.55,2.9,1.34c0.47,0.59,0.67,1.35,0.54,2.09
						c-0.29,2.1-2.76,2.65-4.33,2.78c0.41,0.49,0.63,1.11,0.65,1.75c-0.06,0.82-0.53,1.55-1.25,1.95
						C532.89,415.66,516.55,416.58,503.23,417.1"/>
					<path id="Path_113" class="st17" d="M531.45,402.06c-5.91-0.69-11.89-1.11-11.95-1.11l0.07-1.08c0.06,0,6.07,0.42,12,1.12
						L531.45,402.06z"/>
					<path id="Path_114" class="st17" d="M536.55,405.36l-17.85-0.3l0.02-1.08l17.85,0.3L536.55,405.36z"/>
					
						<rect id="Rectangle_4" x="526.04" y="401.93" transform="matrix(0.022 -0.9998 0.9998 0.022 105.2959 927.2399)" class="st17" width="1.08" height="15.74"/>
					<path id="Path_115" class="st4" d="M475.01,452.53l-0.04-0.72c10.48-0.72,20.76-3.3,30.33-7.63l0.32,0.65
						C495.96,449.19,485.6,451.8,475.01,452.53"/>
					<path id="Path_116" class="st4" d="M504,454.8c-3.9-1.67-8.02-2.76-12.24-3.22l0.09-0.71c4.3,0.47,8.5,1.58,12.47,3.29
						L504,454.8z"/>
					<path id="Path_117" class="st20" d="M476.56,399.41c-0.11,0.89-0.93,1.53-1.82,1.42c-0.89-0.11-1.53-0.93-1.42-1.82
						c0.1-0.82,0.8-1.43,1.62-1.43C475.89,397.64,476.61,398.46,476.56,399.41"/>
					<path id="Path_118" class="st20" d="M477.12,395.73c-0.11,0.89-0.93,1.53-1.82,1.41c-0.89-0.11-1.53-0.93-1.41-1.82
						c0.1-0.82,0.8-1.43,1.62-1.43C476.46,393.97,477.18,394.78,477.12,395.73"/>
					<path id="Path_119" class="st20" d="M479.15,393.08c-0.11,0.89-0.93,1.53-1.82,1.41c-0.89-0.11-1.53-0.93-1.41-1.82
						c0.1-0.82,0.8-1.43,1.62-1.43C478.48,391.31,479.2,392.13,479.15,393.08"/>
					<path id="Path_120" class="st20" d="M476.19,403.29c-0.11,0.89-0.93,1.53-1.82,1.41c-0.89-0.11-1.53-0.93-1.41-1.82
						c0.1-0.82,0.8-1.43,1.62-1.43C475.53,401.52,476.25,402.34,476.19,403.29"/>
					<path id="Path_121" class="st20" d="M476.19,407.1c-0.11,0.89-0.93,1.53-1.82,1.41c-0.89-0.11-1.53-0.93-1.41-1.82
						c0.1-0.82,0.8-1.43,1.62-1.43C475.53,405.33,476.25,406.15,476.19,407.1"/>
					<path id="Path_122" class="st20" d="M476.19,410.98c-0.11,0.89-0.93,1.53-1.82,1.41c-0.89-0.11-1.53-0.93-1.41-1.82
						c0.1-0.82,0.8-1.43,1.62-1.43C475.53,409.21,476.25,410.03,476.19,410.98"/>
					<path id="Path_123" class="st20" d="M476.19,414.79c-0.11,0.89-0.93,1.53-1.82,1.41c-0.89-0.11-1.53-0.93-1.41-1.82
						c0.1-0.82,0.8-1.43,1.62-1.43C475.53,413.02,476.25,413.84,476.19,414.79"/>
					<path id="Path_124" class="st20" d="M478.38,417.41c-0.11,0.89-0.92,1.53-1.81,1.42c-0.89-0.11-1.53-0.92-1.42-1.81
						c0.1-0.82,0.79-1.43,1.62-1.43C477.71,415.65,478.44,416.47,478.38,417.41"/>
					<path id="Path_125" class="st20" d="M480.36,414.64c-0.11,0.89-0.93,1.53-1.82,1.41s-1.53-0.93-1.41-1.82
						c0.1-0.82,0.8-1.43,1.62-1.43C479.7,412.87,480.42,413.69,480.36,414.64"/>
					<path id="Path_126" class="st11" d="M605.53,565.4c-14.22-1.78-21.55-7.76-31.1-8.88c-8.83-1.03-12.11-0.9-14.22-6.9
						c-1.36-3.88,0.84-8.64,2.58-13.39c1.02-2.43,1.62-5.01,1.79-7.64c0.07-6.96,6.18-9.26,8.96-10.07
						c5.34-1.55,7.47,5.74,7.47,5.74c0.74,8.06,9.19,16.26,18.08,20.92c4.1,2.15,9.01,4.54,13.19,6.73
						c4.88,2.56,8.77,4.84,9.24,6.15C622.41,560.5,619.75,567.17,605.53,565.4"/>
					<path id="Path_127" class="st12" d="M605.53,565.39c-14.22-1.78-21.55-7.76-31.1-8.88c-8.83-1.04-12.11-0.9-14.22-6.9
						c-1.36-3.88,0.84-8.64,2.58-13.39c8.97,2.06,9.64,8.73,21.63,13.17c11.99,4.44,22.38,7.02,27.85,2.51l0,0
						c4.88,2.56,8.77,4.84,9.24,6.15C622.41,560.5,619.74,567.16,605.53,565.39"/>
					<path id="Path_128" class="st11" d="M572.56,581.71c-10.4-6.34-16.5-18.54-24.19-23.06c-7.69-4.52-12.71-8.82-13.93-14.92
						c-0.94-4.68,3.14-12.01,5.09-15.16c0.58-0.96,0.98-1.53,0.98-1.53s6.28-4.34,10.8-4.34s6.49,5.66,6.49,5.66
						c2.52,6.14,14.34,19.25,24.15,30.34c7.15,8.08,13.23,15.1,13.9,17.57C597.43,582.16,582.96,588.04,572.56,581.71"/>
					<path id="Path_129" class="st12" d="M572.56,581.71c-10.4-6.33-16.5-18.54-24.19-23.06c-7.69-4.52-12.71-8.82-13.93-14.92
						c-0.94-4.68,3.14-12.01,5.09-15.16c3.41,4,4.32,12.67,8.16,17.65s27.32,25.64,33.68,22.38c3.34-1.71,2.31-6.1,0.57-9.89
						c7.15,8.08,13.23,15.1,13.9,17.57C597.43,582.16,582.96,588.04,572.56,581.71"/>
					<path id="Path_130" class="st17" d="M530.97,401.38c-2.53-2.16-10.43-11.71-10.76-12.12l0.84-0.69
						c0.08,0.1,8.16,9.89,10.63,11.98L530.97,401.38z"/>
					<path id="Path_131" class="st17" d="M549.53,344.15c-2.33,0-5.66-0.85-10.3-3.66l0.56-0.93c9.24,5.61,12.75,2.92,13.45,2.21
						c-0.19-1.06-0.71-4.95,1.28-6.75l0.72,0.8c-1.5,1.36-1.15,4.78-0.89,5.99l0.05,0.22l-0.13,0.19
						C554.19,342.36,552.92,344.15,549.53,344.15"/>
					<path id="Path_132" class="st22" d="M922.62,387.78c3.59-0.22,7.12-0.4,10.55-0.55l3.64-7.2c-3.63,0.12-7.49,0.29-11.5,0.5
						L922.62,387.78z"/>
					<path id="Path_133" class="st22" d="M816.05,514.91c1.64,0,3.07-1.12,3.46-2.71c0.14-0.55,13.72-55.68,26.19-93.61
						c11.28-34.3,70.81-27.77,106.37-23.87c4.48,0.49,8.72,0.95,12.37,1.28c1.96,0.17,3.69-1.27,3.86-3.23s-1.27-3.69-3.23-3.86l0,0
						c-3.58-0.32-7.78-0.78-12.22-1.27c-18.19-2-43.1-4.73-64.96-2.24c-12.18,1.39-22.3,4.3-30.09,8.68
						c-9.39,5.26-15.73,12.76-18.87,22.29c-12.55,38.2-26.21,93.58-26.34,94.14c-0.47,1.91,0.7,3.84,2.61,4.31
						C815.48,514.88,815.76,514.91,816.05,514.91"/>
					<path id="Path_134" class="st23" d="M814.73,514.78c1.66,0,3.1-1.15,3.47-2.76c0.13-0.57,13.4-57.86,25.87-95.78
						c4.86-14.8,19.37-23.28,44.33-25.94c21.8-2.32,46.89,0.43,65.22,2.45c4.56,0.5,8.86,0.97,12.53,1.3
						c1.96,0.17,3.69-1.27,3.86-3.23c0.17-1.96-1.27-3.69-3.23-3.86l0,0c-3.59-0.32-7.86-0.79-12.38-1.29
						c-18.65-2.05-44.18-4.85-66.75-2.45c-12.58,1.34-23.01,4.21-31.02,8.54c-9.69,5.23-16.19,12.72-19.33,22.26
						c-12.57,38.22-25.91,95.82-26.04,96.4c-0.44,1.92,0.77,3.84,2.69,4.28C814.2,514.76,814.47,514.79,814.73,514.78"/>
					<path id="Path_135" class="st14" d="M1077.48,322.12c0.25-3.49-2.48-6.66-17.83-10.98c-15.35-4.32-93.16-20.01-99.96-14.61
						s-39.6,123.86-39.6,123.86s119.64,46.6,127.31,37.22s16.89-55.99,22.88-89.86S1076.82,331.36,1077.48,322.12"/>
					<path id="Path_136" class="st8" d="M1071.35,321.87c0.25-3.49-4.56-5.76-19.92-10.07c-15.35-4.31-86.13-18.36-92.94-12.95
						c-6.8,5.41-44.54,121.3-44.54,121.3s119.64,46.6,127.31,37.22s16.89-55.99,22.88-89.86S1070.69,331.1,1071.35,321.87"/>
					<path id="Path_137" class="st9" d="M840.33,438.47c1.6,4.26,89.08,24.15,89.08,24.15s72.05,6.14,86.93,3.55
						c14.21-2.47,23.01-7.38,23.78-7.82l0.06-0.03c-0.14-0.29-0.3-0.56-0.49-0.81c-2.07-2.75-1.8-9.41-12.13-14.69
						c-22.68-11.6-69.19-24.38-110.96-29.85c0,0-51.39-1.34-72.55,4.94c0,0-0.06,0.1-0.16,0.29
						C842.87,420.09,837.46,430.81,840.33,438.47"/>
					<path id="Path_138" class="st8" d="M840.33,438.47c1.6,4.26,89.08,24.15,89.08,24.15s72.05,6.14,86.93,3.55
						c14.21-2.47,23.01-7.38,23.78-7.82l-0.44-0.84c-4.05-12.28-15.05-12.15-15.05-12.15c-1.2-0.18-2.63-0.35-4.24-0.49
						c-19.44-1.78-66.14-1.32-77.57-3.38c-10.61-1.92-79.43-18.55-98.94-23.28C842.88,420.09,837.46,430.81,840.33,438.47"/>
					<path id="Path_139" class="st22" d="M835.09,446.04c0.24,0.11,0.48,0.2,0.73,0.27c9.19,2.58,91.85,25.22,98.92,25.51
						c0.7,0.03,2.62,0.18,5.28,0.39c7.22,0.57,50.77,0.49,57.85,0.49c12.89,0.01,22.44-0.48,31.04-1.82
						c10.64-1.65,16.73-4.38,19.15-8.6c2.18-3.8,5.05-13.1,8.78-28.43c2.89-11.88,6.28-27.32,10.08-45.88
						c6.45-31.57,11.98-63.1,12.03-63.4c0.34-1.97-0.98-3.84-2.95-4.18c-0.6-0.1-1.51-0.21-2.2-0.31c-1.3-0.19-1.8,1.94-2.05,3.27
						c-6.02,33.22-23.2,123.48-30.08,135.5c-0.43,0.74-2.7,3.32-13.92,5.05c-7.45,1.16-17.51,1.74-29.89,1.73
						c-22.29-0.02-46.83,0.35-57.26-0.47c-2.84-0.22-4.72-0.37-5.56-0.4c-4.77-0.22-61.29-16.81-95.85-25.78
						c-0.66-0.16-1.35-0.23-2.03-0.22C836.47,441.17,835.78,443.61,835.09,446.04"/>
					<path id="Path_140" class="st23" d="M996.19,470.93c12.78,0.01,23.22-0.6,31.05-1.82c10.64-1.65,16.73-4.38,19.15-8.6
						c2.17-3.8,5.05-13.1,8.78-28.43c2.9-11.88,6.29-27.32,10.08-45.89c6.45-31.58,11.91-61.68,11.97-61.98
						c0.32-1.93-0.98-3.76-2.91-4.08c-0.02,0-0.03-0.01-0.05-0.01c-1.96-0.36-3.84,0.92-4.23,2.87
						c-6.02,33.22-23.14,122.07-30.03,134.09c-0.43,0.74-2.69,3.32-13.91,5.05c-7.45,1.15-17.51,1.74-29.89,1.73
						c-22.3-0.01-43.27,0.44-53.7-0.38c-2.84-0.22-4.71-0.37-5.56-0.41c-4.78-0.21-64.85-16.9-99.41-25.87
						c-1.92-0.52-3.91,0.59-4.47,2.5c-0.5,1.88,0.62,3.81,2.51,4.31c0.03,0.01,0.05,0.01,0.08,0.02
						c9.24,2.4,93.93,25.82,100.99,26.11c0.71,0.03,2.63,0.18,5.28,0.39C949.12,471.09,989.1,470.93,996.19,470.93"/>
					<path id="Path_141" class="st12" d="M968.31,374.87c-21.32-2.08-118.93-5.4-134.17,4.05c-15.24,9.45-7.43,77.6-7.43,77.6
						L968.31,374.87z"/>
					<path id="Path_142" class="st4" d="M825.95,531.72c0,0,1.16,17.11,5.83,22.21c0.65,0.8,1.59,1.31,2.61,1.41
						c6.87,0.37,14.3-17.05,19.59-22.86c6.25-6.86,10.79-17.35,8.63-20.81c-1.11-1.78-4.81-2.75-9.22-3.21
						c-4.24-0.38-8.51-0.46-12.77-0.22L825.95,531.72z"/>
					<path id="Path_143" class="st24" d="M825.95,531.72c0,0,1.16,17.11,5.83,22.21c6.26-1.54,6.72-9.06,12.77-16.63
						c5.68-7.11,13.83-21.11,8.84-28.85c-4.24-0.38-8.51-0.46-12.77-0.22L825.95,531.72z"/>
					<path id="Path_144" class="st24" d="M757.79,567.67c4.15,6.32,20.85,12.73,34.5,9.57c13.65-3.16,19.89-8.9,32.64-11.61
						c12.76-2.71,13.05-6.72,11.58-10.3c-1.45-3.5-4.85-7.51-5.04-17.22c0-0.22-0.01-0.45-0.01-0.68c0.1-4.16,1.27-8.23,3.41-11.8
						l-29.53-2.31c-3.67,7.8-3.31,11.04-8.36,15.46c-1.3,1.11-2.67,2.14-4.1,3.07c-6.46,4.3-35.47,18.47-35.47,18.47
						C756.94,562.07,756.45,565.65,757.79,567.67"/>
					<path id="Path_145" class="st4" d="M756.89,568.99c4.15,6.32,21.75,11.41,35.4,8.25s19.89-8.9,32.65-11.61
						c12.76-2.72,13.05-6.72,11.58-10.29c-10.69,0-21.14,6.14-29.67,10.29c-19.08,9.3-31.18,5.3-38.28,3.82
						c-5.93-1.24-11.7-6.61-11.14-9.13C755.72,563.14,755.56,566.96,756.89,568.99"/>
					<path id="Path_146" class="st25" d="M796.98,538.78c-8.4,5.62-2.51,8.01,0.04,8.78c12.2,3.67,29.01-4.83,34.45-9.45
						c0-0.22,0-0.45,0-0.68c0.1-4.16,1.27-8.23,3.42-11.8l-29.53-2.32C801.68,531.11,802.04,534.35,796.98,538.78"/>
					<path id="Path_147" class="st4" d="M835.77,556.19c-0.26-0.62-0.58-1.29-0.92-2.01c-2.58-4.96-3.93-10.47-3.96-16.06
						c0-0.12,0.01-0.68,0.03-1.25c0.01-0.57,0.03-1.13,0.03-1.25h1.14c0,0.12-0.02,0.7-0.03,1.28c-0.02,0.55-0.03,1.1-0.03,1.21
						c0.02,5.43,1.34,10.77,3.84,15.58c0.35,0.73,0.67,1.42,0.94,2.06L835.77,556.19z"/>
					<path id="Path_148" class="st12" d="M1011.41,403.45c0.04,6.97-2.81,25.17-23.96,27.88c-24.19,3.09-31.89,0.71-50.62,1.2
						c-18.73,0.49-37.27-0.81-40.93,0.08c-3.65,0.89-17.4,5.55-19.9,9.53c-2.5,3.98-10.2,33.62-19.43,55.08
						c-7.8,18.13-23.7,38.91-23.7,38.91s-10.32-0.2-27.79-12.45c0,0,13.31-44.83,17.56-60.48c4.25-15.66,5.71-51.38,20.9-60.32
						c15.19-8.94,94.86-13.1,111.56-20.58c16.69-7.48,41.76-3.49,47.87,2.21C1009.08,390.2,1011.41,403.46,1011.41,403.45"/>
					<path id="Path_149" class="st4" d="M823.19,463.35l-1.1-0.3c1.07-3.94,1.99-9.29,2.95-14.96c2.96-17.33,6.64-38.89,18.21-45.71
						c8.21-4.83,34.68-8.24,60.28-11.54c22.44-2.89,43.62-5.62,51.33-9.07l0.46,1.04c-7.85,3.52-29.13,6.26-51.65,9.16
						c-25.49,3.29-51.84,6.68-59.85,11.4c-11.11,6.54-14.75,27.82-17.67,44.92C825.19,453.98,824.27,459.36,823.19,463.35"/>
					<path id="Path_150" class="st11" d="M899.7,372.38c-6.36,0.86-13.55,0.58-17.14,1.27c-8.41,1.61-16.13,5.69-26.29,5.91
						c-10.5,0.22-14.39,1.54-14.1-0.6c0.29-2.14,13.61-4.37,13.61-4.37s-0.56-1.85-3.43-3.15c-1.87-0.84-6.65-0.27-9.75,0.24
						c-1.64,0.24-3.08,1.21-3.93,2.63c-1.22,2.17-3.28,5.14-5.14,4.42c-2.86-1.11,5.39-12.33,8.73-13.72
						c3.1-1.28,34.1-4.11,45.08-4.8C890.57,363.42,898.62,370.06,899.7,372.38"/>
					<path id="Path_151" class="st11" d="M967.49,317.79c0,0-0.5,2.49-1.35,6.34c-0.46,2.09-1.02,4.58-1.66,7.29
						c-3.17,13.44-14.15,36.03-18.01,38.31c-6.08,3.59-52.03,3.12-52.03,3.12l-7.1-12.63c12.58-0.19,29.35-6.68,37.67-8.78
						c3.27-0.83,5.43-4.6,7.11-7.19c6.42-9.86,9.63-18.01,12.28-23.87l0,0c1.6-3.54,2.75-5.93,2.75-5.93l17.96,2.96L967.49,317.79z"
						/>
					<path id="Path_152" class="st24" d="M958.85,315.85c-9.19,1.72-17.26-2.54-17.26-2.54s8.11-39.53,36.32-41.79L958.85,315.85z"
						/>
					<path id="Path_153" class="st24" d="M1017.45,267.22c11.76,7.51,22.3,12.9,28.3,17.54c6.98,5.4-20.95,40.76-20.95,40.76
						s0.26,44.22-4.12,54.97c-3.25,7.98,3.03,14.18-2.53,25.8c-5.55,11.62-11.74,7.83-11.74,7.83s-37.14-23.5-43.15-31.38
						c-6.02-7.88-19.98-8.6-19.98-8.6s9.2-24.49,10.44-36.08c1.38-12.99,14.67-64.49,22.46-66.35c10-2.39,14.04-4.43,14.04-4.43
						L1017.45,267.22z"/>
					<path id="Path_154" class="st4" d="M954.42,338.13l-1.41-0.15c0.96-9.05,8.08-38.83,15.28-55.79l1.31,0.56
						C963,298.27,955.47,328.25,954.42,338.13"/>
					<path id="Path_155" class="st11" d="M1047.17,326.47c-6.05,17.88-23.79,49.38-31.91,51.76c-8.13,2.38-10.91-7.79-11.32-11.15
						c-0.42-3.36,8.97-35.73,16.67-48.76c7.71-13.03,15.19-16.56,22.25-14.35C1049.91,306.17,1047.17,326.46,1047.17,326.47"/>
					<path id="Path_156" class="st4" d="M984.97,287.16c8.51-1.76,23.4-9.35,33.17-17.12l-0.58-0.73
						c-10.43,8.29-27.44,16.69-35,17.27c-2.37,0.18-3.98-0.29-4.78-1.4c-1.36-1.87-0.06-5.05-0.04-5.08l-0.86-0.36
						c-0.06,0.15-1.51,3.68,0.15,5.99c1,1.39,2.89,1.99,5.61,1.78C983.42,287.45,984.2,287.33,984.97,287.16"/>
					<path id="Path_157" class="st4" d="M868.56,396.53l0.18-0.91c-6.7-1.56-13.32-3.49-19.81-5.77l-0.31,0.87
						C855.16,393.02,861.82,394.96,868.56,396.53"/>
					<path id="Path_158" class="st26" d="M980.15,208.8c-2.32-0.02-5.23-1.05-5.81-4.42c-0.58-3.37,1.88-5.17,3.1-7.75
						s0.82-4.21,3.77-5.67c2.96-1.46,0.29-4.01,4.43-4.79c4.14-0.79,7.36-5.27,12.51-2.35c5.14,2.92,3.37-0.47,6.97-1.49
						c3.59-1.02,5.96,0.23,8.51,2.98c2.55,2.76,4.5-3.16,12.84,2.74c8.34,5.91,5.81,8.14,6.28,11.62c0.47,3.48,3.89,0.72,5.24,9.2
						c1.35,8.47-5.73,10.41-5.8,14.2c-0.07,3.79,2.82,5.48-0.4,9.53c-3.22,4.05-3.95,2.52-4.99,6.08c-1.04,3.56-7.73,6.56-7.73,6.56
						L980.15,208.8z"/>
					<path id="Path_159" class="st11" d="M984.61,258.34c1.56,0.5,3.15,0.88,4.77,1.12c0,0-0.06,5.41-1.42,6.62
						c-2.58,2.3-11.14,14.67-5.61,17.5c6.08,3.11,35.79-16.66,35.79-16.66s-1.37-3.93,0.91-21.69c-1.3-1.63-2.15-3.57-2.47-5.63
						c0,0,5.14-0.82,5.43-8.75c0.21-5.69-3.09-5.84-5.4-3.47c-1.36,1.39-0.54-5.59-2.45-6.7s-5.11-1.82-6.3-7.2
						c-0.73-3.34-2.58-6.32-5.25-8.45c-2.13-1.56-6.14-1.64-7.18-0.14c-2.45,3.53-5.53,3.52-7.17,2.68
						c-3.52-1.8-4.28-0.19-5.43,0.54c-1.32,0.84-2.41,0.06-2.68,0.68c-1.21,2.79-2.15,5.68-2.8,8.65c-0.18,0.83-0.33,1.68-0.47,2.58
						c-0.78,5.96-0.77,12,0.05,17.95C978.76,253.9,981.51,257.12,984.61,258.34"/>
					<path id="Path_160" class="st27" d="M1027.81,222.27c0.62-0.49,0.85-1.32,0.59-2.06c-0.24-0.95-0.68-1.84-1.27-2.61
						c-0.32-0.35-0.44-0.84-0.34-1.3c0.19-0.67,1.05-1.35,2.5-1.95c1.53-0.52,2.73-1.74,3.23-3.28c0.23-1.25-0.19-2.53-1.1-3.4
						l-0.69,0.62c0.71,0.66,1.04,1.62,0.89,2.58c-0.46,1.23-1.44,2.19-2.68,2.62c-1.77,0.74-2.76,1.58-3.04,2.56
						c-0.18,0.73,0,1.51,0.49,2.09c0.52,0.67,0.9,1.44,1.12,2.26c0.08,0.38,0.11,0.88-0.23,1.12L1027.81,222.27z"/>
					<path id="Path_161" class="st27" d="M986.5,199.42c0.35,0.01,0.7-0.02,1.04-0.07l-0.17-0.91c-0.02,0-2.38,0.4-3.05-1
						c-0.26-0.5-0.21-1.11,0.14-1.56c0.67-0.75,1.7-1.08,2.68-0.86c1.01,0.27,2.08,0.09,2.96-0.48c0.74-0.7,1.14-1.68,1.1-2.7
						c-0.01-0.63,0.38-1.21,0.97-1.43c0.83-0.29,2.3,0.03,3.97,1.83l0.68-0.63c-1.67-1.81-3.53-2.58-4.96-2.07
						c-0.94,0.35-1.57,1.24-1.58,2.25c0.04,0.75-0.23,1.49-0.75,2.03c-0.67,0.39-1.48,0.5-2.23,0.29c-1.32-0.28-2.7,0.19-3.57,1.22
						c-0.55,0.72-0.64,1.7-0.23,2.51C984.1,198.9,985.27,199.51,986.5,199.42"/>
					<path id="Path_162" class="st28" d="M1019.8,234.83c1.34-2.78,0.99-4.96,0.05-5.88c-0.52-0.53-1.33-0.64-1.98-0.29l0.42,0.83
						c0.29-0.18,0.67-0.13,0.91,0.12c0.57,0.56,0.98,2.3-0.23,4.81L1019.8,234.83z"/>
					<path id="Path_163" class="st29" d="M984.21,241.39c1.55,0.11,3.09-0.21,4.47-0.93l-0.58-0.72c-0.85,0.68-4.73,1.09-6.26,0.28
						c-0.47-0.25-0.46-0.49-0.45-0.58c0.4-2.02,0.92-4.01,1.57-5.96c1.03-3.46,2.09-7.04,2.18-8.71l-0.93-0.06
						c-0.5,2.88-1.21,5.73-2.14,8.5c-0.68,2.01-1.21,4.07-1.61,6.16c-0.03,0.64,0.35,1.23,0.94,1.47
						C982.28,241.22,983.24,241.41,984.21,241.39"/>
					<path id="Path_164" class="st29" d="M985.85,247.66c2.18,0.04,4.49-0.31,5.95-1.39l-0.55-0.74c-2.76,2.04-8.84,1.08-10.23,0.3
						l-0.45,0.81C982.23,247.34,984.03,247.69,985.85,247.66"/>
					<path id="Path_165" class="st29" d="M984.41,249.93c0.91,0.02,1.81-0.13,2.66-0.43l-0.34-0.87c-1.31,0.52-3.3,0.46-3.72,0.03
						l-0.67,0.64C982.93,249.75,983.67,249.98,984.41,249.93"/>
					<path id="Path_166" class="st28" d="M989.39,259.93c4.76-0.12,9.37-1.63,13.28-4.34l-0.56-0.74
						c-3.76,2.59-8.19,4.04-12.75,4.15L989.39,259.93z"/>
					<path id="Path_167" class="st29" d="M999.1,227.65l0.76-0.53c-0.85-1.23-5.5-2.81-8.57-2.19l0.18,0.91
						C994.41,225.25,998.53,226.82,999.1,227.65"/>
					<path id="Path_168" class="st26" d="M999.77,218.96c-1.35-0.77-2.88-1.17-4.44-1.17c-1.96,0.01-6.96,0.77-7.53,1.38
						c-0.56,0.6-0.54,2.58,0.63,2.65c1.17,0.07,5.23-1.9,8.33-1.55c3.1,0.36,7.14,2.31,6.82,1.52
						C1002.43,220.7,1001.15,219.76,999.77,218.96"/>
					<path id="Path_169" class="st26" d="M976.88,220.03c2.14,0.47,4.11,1.26,4.87,1.22c1.17-0.07,1.18-2.05,0.61-2.65
						c-0.39-0.41-2.86-0.88-5.01-1.14C977.17,218.28,977.01,219.13,976.88,220.03"/>
					<path id="Path_170" class="st29" d="M992.72,226.78c-0.02,1.04,0.8,1.9,1.84,1.92c1.04,0.02,1.9-0.8,1.92-1.84
						s-0.8-1.9-1.84-1.92c0,0,0,0,0,0C993.6,224.92,992.74,225.74,992.72,226.78C992.72,226.78,992.72,226.78,992.72,226.78"/>
					<path id="Path_171" class="st29" d="M976.52,225.91c1.9-0.76,3.97-0.96,5.98-0.57l0.24-0.9c-2.2-0.45-4.49-0.23-6.57,0.61
						L976.52,225.91z"/>
					<path id="Path_172" class="st29" d="M981.33,226.07c-0.05,0.94-0.85,1.67-1.79,1.63c-0.94-0.05-1.67-0.85-1.63-1.79
						c0.05-0.94,0.85-1.67,1.79-1.63c0,0,0,0,0,0C980.64,224.33,981.37,225.13,981.33,226.07"/>
					<path id="Path_173" class="st22" d="M919.41,545.03c1.78,0,3.28-1.31,3.52-3.07c0.08-0.56,8.01-56.78,16.57-95.79
						c7.74-35.27,67.63-34.8,103.41-34.53c4.51,0.03,8.77,0.07,12.43,0.02c1.97-0.01,3.55-1.62,3.54-3.58
						c-0.01-1.97-1.62-3.55-3.58-3.54l0,0h-0.05c-3.59,0.05-7.81,0.01-12.29-0.02c-18.3-0.14-43.36-0.33-64.85,4.36
						c-11.97,2.61-21.75,6.54-29.06,11.68c-8.8,6.19-14.36,14.29-16.51,24.09c-8.62,39.27-16.59,95.76-16.67,96.33
						c-0.27,1.95,1.08,3.75,3.03,4.02c0,0,0,0,0,0C919.07,545.02,919.24,545.03,919.41,545.03"/>
					<path id="Path_174" class="st23" d="M918.08,545.03c1.79,0,3.31-1.34,3.53-3.12c0.07-0.59,7.47-58.93,16.02-97.91
						c3.34-15.22,16.91-25.13,41.48-30.3c21.45-4.52,46.7-4.32,65.13-4.17c4.59,0.03,8.92,0.07,12.59,0.02
						c1.97-0.01,3.55-1.62,3.54-3.58c-0.01-1.97-1.62-3.55-3.58-3.54h-0.04c-3.61,0.05-7.9,0.01-12.45-0.02
						c-18.76-0.15-44.45-0.35-66.65,4.33c-12.38,2.61-22.47,6.52-30,11.63c-9.11,6.19-14.82,14.3-16.97,24.11
						c-8.62,39.3-16.06,97.95-16.13,98.54c-0.25,1.95,1.14,3.74,3.09,3.98C917.78,545.03,917.93,545.04,918.08,545.03"/>
					<path id="Path_175" class="st22" d="M1055.86,539.28c0.25,0,0.5-0.03,0.75-0.08c1.92-0.41,3.15-2.3,2.74-4.23c0,0,0,0,0,0
						c-10.52-49.24-6.29-85.9-0.89-107.98c0.47-1.91-0.7-3.84-2.61-4.31c-1.91-0.47-3.84,0.7-4.31,2.61l0,0
						c-5.57,22.81-9.95,60.6,0.85,111.16C1052.73,538.11,1054.18,539.28,1055.86,539.28"/>
					<path id="Path_176" class="st23" d="M1053.38,539.65c0.25,0,0.5-0.03,0.75-0.08c1.92-0.41,3.15-2.3,2.74-4.23c0,0,0,0,0,0
						c-10.18-47.65-6.06-84.33-0.82-106.71c0.06-0.27,0.27-1.25,0.61-2.83c0.29-1.35,0.69-3.19,0.75-3.46
						c0.47-1.91-0.7-3.84-2.61-4.31c-1.91-0.47-3.84,0.7-4.31,2.61l0,0c-0.08,0.32-0.35,1.6-0.8,3.67
						c-0.25,1.16-0.53,2.47-0.58,2.69c-3.38,14.68-5.25,29.68-5.58,44.74c-0.44,21.87,1.7,43.72,6.37,65.08
						C1050.25,538.47,1051.7,539.65,1053.38,539.65"/>
					<path id="Path_177" class="st11" d="M1000.88,358.87c-7.66,1.03-42.22,9.05-59.3,3.95c-16.07-4.8-24.04-0.97-36.97-6.31
						c-9.62-3.97-4.7,4.32-0.65,6.13c2.48,1.1,5.15,1.73,7.86,1.86c0,0-6.59,4.88-14.77,2.81c0,0-4.32-3.37-5.05-4.02
						c-0.56-0.51-4.26,0.24,2.4,7.21c0,0,0.05,5.44,7.83,7.15c0,0-0.38,2.98,9.88,4.59c1.26,0.2,2.54,0.19,3.79-0.04
						c4.03-0.71,13.93-2.33,19.23-2.23c2.9,0.05,64.74,1.85,75.57,0.07C1028.24,377.14,1023.32,355.86,1000.88,358.87"/>
					<path id="Path_178" class="st30" d="M902.1,378.21c-7.17-1.58-8.13-6.34-8.26-7.46c-4.51-4.77-4.41-6.84-3.52-7.75
						c0.55-0.56,1.44-0.62,2.06-0.12c0.74,0.69,4.29,3.43,4.91,3.92c4.33,0.95,8.86,0.28,12.74-1.87c-2.18-0.28-4.3-0.87-6.31-1.76
						c-2.78-1.25-5.95-5.27-5.1-7.23c0.6-1.41,2.69-1.39,6.21,0.06c6.65,2.74,12.08,3.04,17.83,3.35
						c6.46,0.16,12.87,1.15,19.09,2.94c1.71,0.49,3.45,0.86,5.21,1.1l-0.16,1.12c-1.82-0.24-3.62-0.62-5.38-1.13
						c-6.12-1.78-12.45-2.75-18.83-2.89c-5.85-0.32-11.37-0.62-18.2-3.44c-3.14-1.3-4.52-1.16-4.73-0.66
						c-0.49,1.13,2.05,4.64,4.52,5.75c2.41,1.06,5,1.68,7.64,1.81l1.69,0.02l-1.35,1c-4.46,3.05-9.98,4.11-15.25,2.91l-0.11-0.03
						l-0.09-0.07c-0.17-0.13-4.24-3.27-5.09-4.06c-0.17-0.07-0.37-0.02-0.5,0.11c-0.04,0.05-1.03,1.33,3.69,6.29l0.15,0.16v0.22
						c0,0.2,0.18,5.01,7.38,6.6L902.1,378.21z"/>
					<path id="Path_179" class="st30" d="M901.73,374.99c-0.73-0.11-1.38-0.24-1.87-0.35c-2.2-0.5-5.34-3.43-5.46-3.56l0.43-0.76
						c0.03,0.03,3.29,2.99,5.24,3.43c1.98,0.45,5.76,0.96,7.51,0.41l0.27,0.87C905.83,375.41,903.75,375.4,901.73,374.99"/>
					<path id="Path_180" class="st30" d="M906.16,378.9c-0.95-0.15-2.08-0.37-3.39-0.67c-0.11-0.03-0.63-0.14-0.65-0.14l0.19-0.88
						c0.02,0,0.52,0.1,0.66,0.13c1.82,0.49,3.68,0.77,5.56,0.86l0.03,0.92C907.75,379.12,906.95,379.04,906.16,378.9"/>
					<path id="Path_181" class="st24" d="M1049.26,339.62c0,0-24.35,3.9-39.83-11.02c0,0,13.92-49.71,34.03-44.68
						C1063.56,288.95,1049.26,339.62,1049.26,339.62"/>
					<path id="Path_182" class="st4" d="M1042.16,340.76c-8.53,0-22.88-1.69-33.23-11.65l-0.31-0.29l0.11-0.41
						c0.58-2.06,14.34-50.32,34.89-45.18l-0.34,1.38c-18.27-4.57-31.67,39.06-33.06,43.78c15.06,14.15,38.69,10.57,38.92,10.53
						l0.23,1.4C1046.98,340.63,1044.57,340.78,1042.16,340.76"/>
				</g>
			</g>
		</g>
	</g>
</g>
</svg>
